<?xml version="1.0" encoding="UTF-8"?>
<svg preserveAspectRatio="none"  width="47.979" height="20.789" version="1.1" viewBox="0 0 47.979 20.789" xmlns="http://www.w3.org/2000/svg" xmlns:cc="http://creativecommons.org/ns#" xmlns:dc="http://purl.org/dc/elements/1.1/" xmlns:rdf="http://www.w3.org/1999/02/22-rdf-syntax-ns#" xmlns:xlink="http://www.w3.org/1999/xlink">
 <metadata>
  <rdf:RDF>
   <cc:Work rdf:about="">
    <dc:format>image/svg+xml</dc:format>
    <dc:type rdf:resource="http://purl.org/dc/dcmitype/StillImage"/>
    <dc:title/>
   </cc:Work>
  </rdf:RDF>
 </metadata>
 <g transform="translate(-142.85 -34.23)" fill-rule="evenodd">
  <path d="m144.82 35.979h44.044c1.0823 0 1.9672 0.8857 1.9672 1.9677v15.106c0 1.0819-0.8853 1.9672-1.9672 1.9672h-44.044c-1.0824 0-1.9677-0.8849-1.9677-1.9672v-15.106c0-1.0824 0.8849-1.9677 1.9677-1.9677z" fill="#5f5f5f"/>
  <path d="m144.82 34.23h44.044c1.0823 0 1.9672 0.8853 1.9672 1.9672v15.106c0 1.082-0.8853 1.9677-1.9672 1.9677h-44.044c-1.0824 0-1.9677-0.8853-1.9677-1.9677v-15.106c0-1.0823 0.8849-1.9672 1.9677-1.9672z" fill="#929292"/>
  <path d="m145.19 34.897h43.296c0.9809 0 1.7831 0.8027 1.7831 1.7831v14.14c0 0.9805-0.8026 1.7832-1.7831 1.7832h-43.296c-0.9805 0-1.7832-0.8023-1.7832-1.7832v-14.14c0-0.9809 0.8023-1.7831 1.7832-1.7831z" fill="#c5c5c5"/>
  <path d="m145.19 34.897h43.296c0.981 0 1.7831 0.8028 1.7831 1.7831v9.8756h-46.862v-9.8756c0-0.9809 0.8018-1.7831 1.7831-1.7831z" fill="#d0d0d0"/>
  <path d="m146.55 36.151h40.59c0.7909 0 1.4371 0.6465 1.4371 1.4367v12.324c0 0.7902-0.6466 1.4367-1.4371 1.4367h-40.59c-0.7902 0-1.4367-0.6461-1.4367-1.4367v-12.324c0-0.7906 0.6461-1.4367 1.4367-1.4367z" fill="#b3b3b3"/>
  <path d="m147.01 36.572h39.661c0.7267 0 1.3211 0.5948 1.3211 1.3211v11.716c0 0.7263-0.5948 1.3211-1.3211 1.3211h-39.661c-0.7263 0-1.3211-0.5944-1.3211-1.3211v-11.716c0-0.7267 0.5944-1.3211 1.3211-1.3211z" fill="#292929"/>
  <path d="m147.74 37.163h38.207c0.6589 0 1.1976 0.5323 1.1976 1.1827v10.809c0 0.6504-0.5391 1.1827-1.1976 1.1827h-38.207c-0.6586 0-1.1976-0.5319-1.1976-1.1827v-10.809c0-0.6508 0.5386-1.1827 1.1976-1.1827z" fill="#454545"/>
  <g fill="#292929">
   <path d="m145.69 48.962v-0.8746l3.5752-0.2188z"/>
   <path d="m160.58 48.703-8.1985-0.583 12.061-0.2916 11.15 0.0728z"/>
   <path d="m187.99 49.608v-0.7225l-9.7413 0.8375z"/>
   <path d="m187.99 39.108v-0.8379l-5.5143 0.4736z"/>
   <path d="m157.23 38.999-4.737-0.6194 4.8828-0.2915 8.9636 0.583z"/>
   <path d="m186.12 45.971-12.352-0.0364 4.7007-0.4736z"/>
  </g>
  <path d="m190.27 50.046v0.7737c0 0.9807-0.8028 1.7832-1.7831 1.7832h-43.296c-0.9806 0-1.7831-0.8022-1.7831-1.7832v-0.7737c0 0.981 0.8018 1.7831 1.7831 1.7831h43.296c0.981 0 1.7831-0.8021 1.7831-1.7831z" fill="#b3b3b3"/>
  <path d="m145.19 34.897h43.296c0.981 0 1.7831 0.8022 1.7831 1.7831v0.6558c0-0.981-0.8021-1.7832-1.7831-1.7832h-43.296c-0.9809 0-1.7831 0.8022-1.7831 1.7832v-0.6558c0-0.9809 0.8022-1.7831 1.7831-1.7831z" fill="#dedede"/>
  <g fill="#5f5f5f">
   <path d="m183.76 34.897h-0.5645l-0.5923 0.8914z"/>
   <path d="m159.61 52.603h-1.0748l1.3845-1.2537z"/>
   <path d="m154.82 36.151h-0.8927l-0.82-0.7526z"/>
  </g>
  <g fill="#0f0f0f">
   <path d="m145.69 40.601h42.303v0.5627h-42.303z"/>
   <path d="m145.69 46.726h42.303v0.5627h-42.303z"/>
   <path d="m150.08 41.164h-1.3436l4.1564 1.9068z"/>
   <path d="m173.72 40.852 0.5624-0.2503 1.7189-1.281-1.3124 1.5313 0.9374 1.7501z"/>
   <path d="m178.96 47.289h-1.1251l-1.3907 1.2654z"/>
  </g>
 </g>
</svg>
